<svg width="50" height="50" viewBox="0 0 50 50" fill="none" xmlns="http://www.w3.org/2000/svg">
<g filter="url(#filter0_d_2_112)">
<path d="M46 17.1098C46 14.9538 44.4254 13.1679 42.3622 12.8306C42.3583 12.8253 42.3521 12.8205 42.3473 12.8188L33.1537 11.5806L29.1234 3.41381C28.4969 1.78369 26.9219 0.623001 25.0704 0.623001C23.152 0.623001 21.5258 1.86725 20.9518 3.59319L17.0839 11.5806L8.088 12.7689C8.08713 12.7741 8.08582 12.7811 8.0845 12.7864C5.87075 12.9889 4.13782 14.8474 4.13782 17.1102C4.13782 18.5382 4.82819 19.7999 5.89 20.5944L12.1191 26.8656L10.6049 35.1816C10.6098 35.1842 10.6141 35.1864 10.6194 35.1886C10.4527 35.6501 10.3578 36.1427 10.3578 36.6599C10.3578 39.0591 12.3024 41.0043 14.7034 41.0043C15.515 41.0043 16.2741 40.7781 16.9268 40.3878L25.119 36.3108L32.9905 40.2526C33.6879 40.7282 34.5301 41.0047 35.4374 41.0047C37.8358 41.0047 39.7805 39.06 39.7805 36.6603C39.7805 36.5352 39.7713 36.4092 39.7604 36.2832C39.7687 36.2788 39.7726 36.274 39.7805 36.267L38.1202 26.8664L44.5182 20.4199C44.5178 20.4142 44.509 20.4028 44.5011 20.3901C45.4173 19.5926 46 18.4214 46 17.1098Z" fill="white"/>
</g>
<defs>
<filter id="filter0_d_2_112" x="0" y="0" width="50" height="50" filterUnits="userSpaceOnUse" color-interpolation-filters="sRGB">
<feFlood flood-opacity="0" result="BackgroundImageFix"/>
<feColorMatrix in="SourceAlpha" type="matrix" values="0 0 0 0 0 0 0 0 0 0 0 0 0 0 0 0 0 0 127 0" result="hardAlpha"/>
<feOffset dy="4"/>
<feGaussianBlur stdDeviation="2"/>
<feComposite in2="hardAlpha" operator="out"/>
<feColorMatrix type="matrix" values="0 0 0 0 0 0 0 0 0 0 0 0 0 0 0 0 0 0 0.25 0"/>
<feBlend mode="normal" in2="BackgroundImageFix" result="effect1_dropShadow_2_112"/>
<feBlend mode="normal" in="SourceGraphic" in2="effect1_dropShadow_2_112" result="shape"/>
</filter>
</defs>
</svg>
